@startuml

class Client

class Leaf{
+ execute()
}

interface Component{
+ execute()
}

class Composite {
- childer: Component []
+ add (c: Component)
- remove (c: Component)
+ getChildren(): Component[]
+ execute()
}

Client --> Component
Component <|.. Leaf
Component <|.. Composite
Component <--o Composite

@enduml