@startuml
class Client

class RefinedAbstraction{
+ featureN()
}
class ConcreteImplementations

skinparam package {
    BorderColor red
    BorderThickness 2
    FontStyle bold
    StereotypeFontColor red
    BorderColor #FF0000
    Style dashed
}

package "Bridge"  {
    class Abstraction {
        - i: Implementation
        + feature1()
        + feature2()
    }


interface Implementation{
+ method1()
+ method2()
+ method3()
}



Client --> Abstraction
Abstraction o--> Implementation
ConcreteImplementations ..|> Implementation
RefinedAbstraction --|> Abstraction

@enduml